<?xml version="1.0" encoding="iso-8859-1"?>
<!-- Uploaded to: SVG Repo, www.svgrepo.com, Generator: SVG Repo Mixer Tools -->
<svg height="800px" width="800px" version="1.1" id="Layer_1" xmlns="http://www.w3.org/2000/svg" xmlns:xlink="http://www.w3.org/1999/xlink" 
	 viewBox="0 0 392.594 392.594" xml:space="preserve">
<path style="fill:#194F82;" d="M392.529,125.113c-0.776-4.202-3.103-7.111-6.982-8.857L200.206,43.594
	c-2.521-1.034-5.43-1.034-7.952,0L6.913,116.256c-9.632,3.943-8.792,16.937,0,20.299l62.966,24.63v132.073
	c0,4.461,2.78,8.469,6.982,10.15l115.459,45.253c2.651,1.487,5.301,1.487,7.952,0l115.459-45.253
	c4.202-1.616,6.982-5.624,6.982-10.15V161.315l48.032-18.877v127.935c0,6.012,4.848,10.925,10.925,10.925
	c6.012,0,10.925-4.848,10.925-10.925C392.529,270.309,392.594,125.501,392.529,125.113z M300.796,285.824L196.262,326.81
	L91.729,285.824v-116.04l100.59,39.499c2.392,1.099,5.107,0.905,7.952,0l100.525-39.434V285.824z M196.262,187.432L40.787,126.406
	l155.475-60.962l155.475,60.962L196.262,187.432z"/>
<path style="fill:#FFFFFF;" d="M200.206,209.283c-2.844,0.905-5.56,1.099-7.952,0l-100.59-39.499v116.04l104.533,40.986
	l104.533-40.986v-116.04L200.206,209.283z"/>
<path style="fill:#56ACE0;" d="M113.515,220.079h47.838c6.012,0,10.925,4.848,10.925,10.925s-4.848,10.925-10.925,10.925h-47.838
	l0,0v17.067l0,0h20.881c6.012,0,10.925,4.848,10.925,10.925c0,5.042-3.426,9.115-7.952,10.408l58.893,23.079l82.747-32.453v-92.574
	l-78.739,30.901c-2.844,0.905-5.56,1.099-7.952,0l-78.804-30.901L113.515,220.079L113.515,220.079z"/>
<polygon style="fill:#FFC10D;" points="196.262,65.444 40.787,126.406 196.262,187.432 351.737,126.406 "/>
</svg>